<svg width="227" height="283" viewBox="0 0 227 283" fill="none" xmlns="http://www.w3.org/2000/svg">
<path d="M80.8397 172.372C110.688 178.801 116.412 188.24 117.192 201.828C117.338 204.377 116.029 206.833 113.697 208.005C95.4766 217.158 80.3064 202.41 72.1217 172.372L70.5366 168.517L0 0.541931H5.15155L74.1031 167.36C76.1796 170.07 77.5121 171.361 80.8397 172.372Z" fill="#038205"/>
<path d="M85.9524 143.253C110.66 148.607 115.751 156.424 116.546 167.617C116.726 170.156 115.414 172.629 113.062 173.744C97.9659 180.904 85.4164 168.398 78.6062 143.253L77.2705 139.985L17.8323 0.541931H22.1733L80.2758 139.005C82.0255 141.302 83.1484 142.396 85.9524 143.253Z" fill="#038205"/>
<path d="M90.4971 117.705C110.594 122.049 115.13 128.341 115.957 137.287C116.192 139.825 114.867 142.323 112.473 143.357C100.165 148.673 89.9544 138.27 84.3701 117.705L83.2561 114.986L33.6832 0.541931H37.3037L85.7626 114.171C87.222 116.082 88.1585 116.992 90.4971 117.705Z" fill="#038205"/>
<path d="M91.8605 91.044C110.562 95.0756 114.933 100.897 115.775 109.15C116.034 111.689 114.703 114.2 112.29 115.2C100.822 119.955 91.3147 110.2 86.0993 91.044L85.0518 88.4945L47.949 0.541931H51.3534L87.4087 87.7296C88.7809 89.5219 89.6615 90.3755 91.8605 91.044Z" fill="#038205"/>
<path d="M119.121 118.187C117.331 117.722 115.702 115.901 116.88 114.509C117.165 114.171 117.549 113.841 118.048 113.48C118.303 99.5415 123.28 96.6013 136.903 96.1431C139.611 96.0165 140.536 95.078 142.14 93.3386L175.153 0.541931H179.605L143.711 96.1431C136.275 116.188 130.318 121.091 119.121 118.187Z" fill="#038205"/>
<path d="M121.128 147.027C118.189 146.434 115.942 143.374 118.347 141.628C118.619 126.766 123.912 123.631 138.399 123.142C141.279 123.007 142.263 122.006 143.969 120.152L188.25 0.541931H192.985L145.64 123.142C138.103 143.513 131.994 149.218 121.128 147.027Z" fill="#038205"/>
<path d="M121.857 178.324C118.853 177.639 116.336 174.483 118.677 172.528C118.879 172.36 119.101 172.188 119.345 172.011C119.67 154.145 126.016 150.376 143.387 149.789C146.841 149.627 148.02 148.424 150.066 146.194L203.159 0.541931H208.836L152.069 149.789C142.844 174.787 135.403 181.412 121.857 178.324Z" fill="#038205"/>
<path d="M122.542 213.525C119.549 212.781 116.877 209.68 119.012 207.508C119.4 207.114 119.881 206.718 120.467 206.294C120.853 185.22 128.385 180.774 148.999 180.081C153.097 179.89 154.496 178.471 156.924 175.841L219.932 0.541931H226.668L159.302 180.081C148.15 210.119 139.196 217.668 122.542 213.525Z" fill="#038205"/>
<path fill-rule="evenodd" clip-rule="evenodd" d="M115.258 41.0076C100.692 40.8914 86.969 44.5251 75.0073 51.0067L76.5904 54.6577C88.0533 48.3818 101.231 44.8586 115.227 44.9702C128.654 45.0773 141.274 48.5172 152.31 54.4987L154.262 51.0486C142.659 44.7458 129.384 41.1202 115.258 41.0076Z" fill="#038205"/>
<path d="M79.1561 195.132C78.493 194.8 77.8352 194.459 77.1829 194.109C52.0789 180.643 35.0997 154.056 35.3427 123.59C35.4176 114.193 37.1251 105.191 40.1937 96.8508L37.9931 91.6505C33.8182 101.458 31.4704 112.235 31.3801 123.559C31.1249 155.558 48.9655 183.484 75.3398 197.618C76.0675 198.008 76.8016 198.388 77.5421 198.757C78.7111 199.339 79.8958 199.894 81.0954 200.422L79.1561 195.132Z" fill="#038205"/>
<path d="M41.8571 83.7629L44.0195 88.123C45.992 84.2741 48.27 80.6083 50.8211 77.1574L49.0477 72.9447C46.3819 76.3473 43.9751 79.9632 41.8571 83.7629Z" fill="#038205"/>
<path d="M53.5292 66.9668L55.5789 71.3208C57.5142 69.1634 59.566 67.1129 61.7243 65.1792L60.07 61.3546C57.6553 63.4505 55.6884 64.6088 53.5292 66.9668Z" fill="#038205"/>
<path d="M64.6932 57.6213L66.5463 61.1887C68.2424 59.8939 69.9923 58.6661 71.7918 57.5092L70.2093 53.8181C68.3179 55.013 66.4779 56.2821 64.6932 57.6213Z" fill="#038205"/>
<path d="M162.713 61.241L164.165 57.3728C162.721 56.3001 161.241 55.273 159.727 54.2937L158.279 58.0823C159.794 59.0854 161.273 60.1391 162.713 61.241Z" fill="#038205"/>
<path d="M174.166 71.9466L175.568 67.5884C173.628 65.5002 171.582 63.5116 169.438 61.6313L167.91 65.5802C170.112 67.5838 172.201 69.7095 174.166 71.9466Z" fill="#038205"/>
<path d="M185.547 88.8701L187.531 84.1233C185.525 80.4825 183.254 77.0074 180.744 73.7242L179.08 78.1371C181.506 81.5259 183.671 85.1134 185.547 88.8701Z" fill="#038205"/>
<path d="M193.847 124.854C193.626 152.506 179.271 176.737 157.691 190.746C157.153 191.095 156.61 191.439 156.062 191.775L154.152 197.454C155.527 196.71 156.88 195.927 158.207 195.109C158.829 194.725 159.446 194.334 160.057 193.935C182.598 179.205 197.579 153.83 197.809 124.886C197.897 113.871 195.841 103.339 192.031 93.6854L189.875 99.3712C192.518 107.381 193.918 115.952 193.847 124.854Z" fill="#038205"/>
<path d="M124 220.933C124 224.284 122.91 227 120.48 227C118.05 227 116.08 224.284 116.08 220.933C116.08 217.583 113.65 214 116.08 214C118.51 214 124 217.583 124 220.933Z" fill="#038205"/>
<path d="M118.5 238.875H114.5C114.5 232.375 125.5 232.375 125.5 238.875C125.5 240.773 124.577 241.487 124 241.875V242.375C127.5 245.375 126.5 252.375 120.5 252.375C115 252.375 114.5 250.875 114.5 245.875H118.5V250.375C118.5 251.375 122 251.375 122 250.375V243.375C121.485 242.766 119.965 242.875 119 242.875V241.375C121 241.375 122 240.875 122 238.875C122 233.875 118.5 233.875 118.5 238.875Z" fill="#038205"/>
<path fill-rule="evenodd" clip-rule="evenodd" d="M126.5 244H131V236H127.5V234H171.5V236H168.5V250.751H171V252.5H162V250.751H164.5V248C162 250 155.5 249.5 155.5 245.5V236H153V251.201H156.5C160.5 251.201 160.5 257 156.5 257H143V255.5H153C155.5 255.5 155.5 253 153 253H146V251.201H148.5V243.5H144.5V249H141L137.5 245V242H148.5V236H135V250L135.5 251.201H138V252.5H128.5V251.201H130.5L131 250V245.5H126.5V244ZM160 236V245.5C160 247.5 164.5 248 164.5 245.5V236H160Z" fill="#038205"/>
<path fill-rule="evenodd" clip-rule="evenodd" d="M59 234.5H69V243.5H74.5V236.5H73.5V234.5H112.5V236H102V238.496C112 233.5 114 251 103.5 247.5V247C109.346 247.211 107 235 102 240.092V251H104.5V252.5H97.5C94.5 252.5 94.5 255.5 97.5 255.5H107.2V256.838H94.5C90 256.838 90 251 94.5 251H97.5V249C87 251 88 234 97.5 238.5V236.5H87.5V250.5L89.5 251V252.5H81.5V251L82.5 250.5V236.5H78.5V250.5L79.5 251H80.5V252.5H73V251H73.75L74.5 250.5V245.5H69V251.5H66.5L60.1357 246V243.733H64.5V236H59V234.5ZM97.5 239.5C92 235.5 92.5 251 97.5 246.5V239.5Z" fill="#038205"/>
<path d="M70.7626 261.51H59V263.033L62.5799 264.048L62.5799 278.769L59.5114 279.785V281.815H71.274V279.785L68.2055 278.769L68.2055 264.048L70.7626 263.033V261.51Z" fill="#038205"/>
<path d="M88.1507 282.83C95.8211 281.975 98.5941 280.556 101.448 276.739V276.231H99.4018C96.9859 278.915 94.4964 279.68 88.1507 279.785C81.6622 278.581 80.4795 276.739 79.6647 271.916C79.7676 265.583 82.3633 264.453 88.1507 263.541C93.7768 263.861 96.4224 264.645 99.4018 268.109H101.448V261.003H99.4018L98.379 263.033C94.7423 261.2 92.4288 260.971 88.1507 261.003C79.3443 261.788 74.8539 264.048 73.8311 271.916C73.8311 277.754 77.2083 281.721 88.1507 282.83Z" fill="#038205"/>
<path fill-rule="evenodd" clip-rule="evenodd" d="M102.982 279.277H106.05L114.744 262.525H120.881L131.621 279.277C133.876 279.217 134.178 279.277 134.178 281.815H120.37V279.277H123.438C123.699 277.61 123.172 276.231 121.904 274.708H111.676C110.816 276.097 110.329 277.381 110.653 279.277H113.722L113.721 281.815C112.681 281.815 111.726 281.824 110.852 281.833C105.275 281.887 102.982 281.91 102.982 279.277ZM117.301 266.079H115.767L113.21 271.155V272.17H120.37V271.155L117.301 266.079Z" fill="#038205"/>
<path fill-rule="evenodd" clip-rule="evenodd" d="M138.269 262.525V265.571H140.826L141.849 267.094V278.769L140.826 279.785H138.269V281.815H150.543V280.292L149.009 279.785L147.986 278.769V274.708H151.055L161.795 282.83C168.452 283.447 170.07 282.409 171 279.277C169.883 278.991 169.118 279.24 168.318 279.501C167.508 279.764 166.661 280.04 165.374 279.785L159.749 274.708C168.954 274.201 167.42 262.525 159.749 262.525H138.269ZM155.658 265.064H147.475V272.17H155.658C161.283 272.17 161.283 265.064 155.658 265.064Z" fill="#038205"/>
</svg>
